<svg width="20" height="19" viewBox="0 0 20 19" fill="none" xmlns="http://www.w3.org/2000/svg">
<path d="M6.52662 18.784C2.95466 18.7636 0 11.5378 0 7.85778C0 1.84655 4.55044 0.530528 6.30415 0.530528C7.09447 0.530528 7.93837 0.838095 8.68271 1.11026C9.20321 1.30012 9.74153 1.4961 10.0409 1.4961C10.2201 1.4961 10.6424 1.32938 11.0153 1.1831C11.8104 0.869405 12.7999 0.479523 13.9521 0.479523C13.9541 0.479523 13.9569 0.479523 13.9589 0.479523C14.8193 0.479523 17.4279 0.666636 18.9962 3.00063L19.3636 3.54771L18.8349 3.94307C18.0796 4.50785 16.7014 5.53809 16.7014 7.57883C16.7014 9.99583 18.2622 10.9254 19.012 11.3724C19.343 11.5698 19.6856 11.7732 19.6856 12.2182C19.6856 12.5088 17.3455 18.748 13.9472 18.748C13.1157 18.748 12.528 18.5003 12.0095 18.2819C11.4849 18.0607 11.0324 17.8702 10.2846 17.8702C9.90559 17.8702 9.42629 18.0478 8.91886 18.2363C8.22543 18.4928 7.44055 18.784 6.54996 18.784H6.52662Z" fill="white"/>
</svg>
